HIERARCHY
ROOT Hips
{
	OFFSET -344.582550 -583.924072 89.219704
	CHANNELS 6 Xposition Yposition Zposition Zrotation Yrotation Xrotation
	JOINT Spine
	{
		OFFSET 0.000000 2.080078 8.814247
		CHANNELS 6 Xposition Yposition Zposition Zrotation Yrotation Xrotation
		JOINT Spine1
		{
			OFFSET 0.000000 0.000000 8.844139
			CHANNELS 6 Xposition Yposition Zposition Zrotation Yrotation Xrotation
			JOINT Spine2
			{
				OFFSET 0.000000 0.000000 11.682266
				CHANNELS 6 Xposition Yposition Zposition Zrotation Yrotation Xrotation
				JOINT Spine3
				{
					OFFSET 0.000000 0.000000 11.746696
					CHANNELS 6 Xposition Yposition Zposition Zrotation Yrotation Xrotation
					JOINT Neck
					{
						OFFSET 0.000000 0.000000 17.658264
						CHANNELS 6 Xposition Yposition Zposition Zrotation Yrotation Xrotation
						JOINT Neck1
						{
							OFFSET 0.000000 0.000000 5.101517
							CHANNELS 6 Xposition Yposition Zposition Zrotation Yrotation Xrotation
							JOINT Head
							{
								OFFSET 0.000000 0.000000 5.101517
								CHANNELS 6 Xposition Yposition Zposition Zrotation Yrotation Xrotation
								JOINT HeadEnd
								{
									OFFSET 0.000000 0.000000 11.655090
									CHANNELS 6 Xposition Yposition Zposition Zrotation Yrotation Xrotation
									End Site
									{
										OFFSET 0.000000 0.000000 0.100006
									}
								}
							}
						}
					}
					JOINT RightShoulder
					{
						OFFSET -2.625397 0.000000 11.175217
						CHANNELS 6 Xposition Yposition Zposition Zrotation Yrotation Xrotation
						JOINT RightArm
						{
							OFFSET 0.000000 0.000000 10.434708
							CHANNELS 6 Xposition Yposition Zposition Zrotation Yrotation Xrotation
							JOINT RightForeArm
							{
								OFFSET 0.000000 0.000000 29.628418
								CHANNELS 6 Xposition Yposition Zposition Zrotation Yrotation Xrotation
								JOINT RightHand
								{
									OFFSET 0.000000 0.000000 22.857605
									CHANNELS 6 Xposition Yposition Zposition Zrotation Yrotation Xrotation
									JOINT RightHandThumb1
									{
										OFFSET -2.867310 -2.944275 3.959564
										CHANNELS 6 Xposition Yposition Zposition Zrotation Yrotation Xrotation
										JOINT RightHandThumb2
										{
											OFFSET 0.000000 0.000000 3.350403
											CHANNELS 6 Xposition Yposition Zposition Zrotation Yrotation Xrotation
											JOINT RightHandThumb3
											{
												OFFSET 0.000000 0.000000 3.756516
												CHANNELS 6 Xposition Yposition Zposition Zrotation Yrotation Xrotation
												JOINT RightHandThumb4
												{
													OFFSET 0.000000 0.000000 3.147339
													CHANNELS 6 Xposition Yposition Zposition Zrotation Yrotation Xrotation
													End Site
													{
														OFFSET 0.000000 0.000000 0.100006
													}
												}
											}
										}
									}
									JOINT RightHandIndex1
									{
										OFFSET -0.086761 -2.345276 10.030899
										CHANNELS 6 Xposition Yposition Zposition Zrotation Yrotation Xrotation
										JOINT RightHandIndex2
										{
											OFFSET 0.000000 0.000000 4.061096
											CHANNELS 6 Xposition Yposition Zposition Zrotation Yrotation Xrotation
											JOINT RightHandIndex3
											{
												OFFSET 0.000000 0.000000 3.248871
												CHANNELS 6 Xposition Yposition Zposition Zrotation Yrotation Xrotation
												JOINT RightHandIndex4
												{
													OFFSET 0.000000 0.000000 2.639709
													CHANNELS 6 Xposition Yposition Zposition Zrotation Yrotation Xrotation
													End Site
													{
														OFFSET 0.000000 0.000000 0.100006
													}
												}
											}
										}
									}
									JOINT RightHandMiddle1
									{
										OFFSET 0.104095 -0.006775 9.502945
										CHANNELS 6 Xposition Yposition Zposition Zrotation Yrotation Xrotation
										JOINT RightHandMiddle2
										{
											OFFSET 0.000000 0.000000 4.568726
											CHANNELS 6 Xposition Yposition Zposition Zrotation Yrotation Xrotation
											JOINT RightHandMiddle3
											{
												OFFSET 0.000000 0.000000 3.654984
												CHANNELS 6 Xposition Yposition Zposition Zrotation Yrotation Xrotation
												JOINT RightHandMiddle4
												{
													OFFSET 0.000000 0.000000 2.741241
													CHANNELS 6 Xposition Yposition Zposition Zrotation Yrotation Xrotation
													End Site
													{
														OFFSET 0.000000 0.000000 0.100006
													}
												}
											}
										}
									}
									JOINT RightHandRing1
									{
										OFFSET 0.086761 2.267456 8.921707
										CHANNELS 6 Xposition Yposition Zposition Zrotation Yrotation Xrotation
										JOINT RightHandRing2
										{
											OFFSET 0.000000 0.000000 4.061096
											CHANNELS 6 Xposition Yposition Zposition Zrotation Yrotation Xrotation
											JOINT RightHandRing3
											{
												OFFSET 0.000000 0.000000 3.654984
												CHANNELS 6 Xposition Yposition Zposition Zrotation Yrotation Xrotation
												JOINT RightHandRing4
												{
													OFFSET 0.000000 0.000000 2.741241
													CHANNELS 6 Xposition Yposition Zposition Zrotation Yrotation Xrotation
													End Site
													{
														OFFSET 0.000000 0.000000 0.100006
													}
												}
											}
										}
									}
									JOINT RightHandPinky1
									{
										OFFSET -0.173492 4.467224 7.976990
										CHANNELS 6 Xposition Yposition Zposition Zrotation Yrotation Xrotation
										JOINT RightHandPinky2
										{
											OFFSET 0.000000 0.000000 3.350403
											CHANNELS 6 Xposition Yposition Zposition Zrotation Yrotation Xrotation
											JOINT RightHandPinky3
											{
												OFFSET 0.000000 0.000000 2.842758
												CHANNELS 6 Xposition Yposition Zposition Zrotation Yrotation Xrotation
												JOINT RightHandPinky4
												{
													OFFSET 0.000000 0.000000 2.639709
													CHANNELS 6 Xposition Yposition Zposition Zrotation Yrotation Xrotation
													End Site
													{
														OFFSET 0.000000 0.000000 0.100006
													}
												}
											}
										}
									}
									JOINT RightForeArmEnd
									{
										OFFSET 0.000000 0.000000 0.000000
										CHANNELS 6 Xposition Yposition Zposition Zrotation Yrotation Xrotation
										End Site
										{
											OFFSET 0.000000 0.000000 0.100006
										}
									}
								}
								JOINT RightArmEnd
								{
									OFFSET 0.000000 0.000000 0.000000
									CHANNELS 6 Xposition Yposition Zposition Zrotation Yrotation Xrotation
									End Site
									{
										OFFSET 0.000000 0.000000 0.100006
									}
								}
							}
						}
					}
					JOINT LeftShoulder
					{
						OFFSET 2.625397 0.000000 11.175217
						CHANNELS 6 Xposition Yposition Zposition Zrotation Yrotation Xrotation
						JOINT LeftArm
						{
							OFFSET 0.000000 0.000000 10.813629
							CHANNELS 6 Xposition Yposition Zposition Zrotation Yrotation Xrotation
							JOINT LeftForeArm
							{
								OFFSET 0.000000 0.000000 28.724777
								CHANNELS 6 Xposition Yposition Zposition Zrotation Yrotation Xrotation
								JOINT LeftHand
								{
									OFFSET 0.644379 0.328857 25.716171
									CHANNELS 6 Xposition Yposition Zposition Zrotation Yrotation Xrotation
									JOINT LeftHandThumb1
									{
										OFFSET 2.867310 -2.944275 3.959564
										CHANNELS 6 Xposition Yposition Zposition Zrotation Yrotation Xrotation
										JOINT LeftHandThumb2
										{
											OFFSET 0.000000 0.000000 3.350403
											CHANNELS 6 Xposition Yposition Zposition Zrotation Yrotation Xrotation
											JOINT LeftHandThumb3
											{
												OFFSET 0.000000 0.000000 3.756516
												CHANNELS 6 Xposition Yposition Zposition Zrotation Yrotation Xrotation
												JOINT LeftHandThumb4
												{
													OFFSET 0.000000 0.000000 3.100006
													CHANNELS 6 Xposition Yposition Zposition Zrotation Yrotation Xrotation
													End Site
													{
														OFFSET 0.000000 0.000000 0.100006
													}
												}
											}
										}
									}
									JOINT LeftHandIndex1
									{
										OFFSET 0.086761 -2.345276 10.030899
										CHANNELS 6 Xposition Yposition Zposition Zrotation Yrotation Xrotation
										JOINT LeftHandIndex2
										{
											OFFSET 0.000000 0.000000 4.061096
											CHANNELS 6 Xposition Yposition Zposition Zrotation Yrotation Xrotation
											JOINT LeftHandIndex3
											{
												OFFSET 0.000000 0.000000 3.248871
												CHANNELS 6 Xposition Yposition Zposition Zrotation Yrotation Xrotation
												JOINT LeftHandIndex4
												{
													OFFSET 0.000000 0.000000 2.639709
													CHANNELS 6 Xposition Yposition Zposition Zrotation Yrotation Xrotation
													End Site
													{
														OFFSET 0.000000 0.000000 0.100006
													}
												}
											}
										}
									}
									JOINT LeftHandMiddle1
									{
										OFFSET -0.104095 -0.006775 9.502945
										CHANNELS 6 Xposition Yposition Zposition Zrotation Yrotation Xrotation
										JOINT LeftHandMiddle2
										{
											OFFSET 0.000000 0.000000 4.568726
											CHANNELS 6 Xposition Yposition Zposition Zrotation Yrotation Xrotation
											JOINT LeftHandMiddle3
											{
												OFFSET 0.000000 0.000000 3.654984
												CHANNELS 6 Xposition Yposition Zposition Zrotation Yrotation Xrotation
												JOINT LeftHandMiddle4
												{
													OFFSET 0.000000 0.000000 2.741241
													CHANNELS 6 Xposition Yposition Zposition Zrotation Yrotation Xrotation
													End Site
													{
														OFFSET 0.000000 0.000000 0.100006
													}
												}
											}
										}
									}
									JOINT LeftHandRing1
									{
										OFFSET -0.086761 2.267456 8.921707
										CHANNELS 6 Xposition Yposition Zposition Zrotation Yrotation Xrotation
										JOINT LeftHandRing2
										{
											OFFSET 0.000000 0.000000 4.061096
											CHANNELS 6 Xposition Yposition Zposition Zrotation Yrotation Xrotation
											JOINT LeftHandRing3
											{
												OFFSET 0.000000 0.000000 3.654984
												CHANNELS 6 Xposition Yposition Zposition Zrotation Yrotation Xrotation
												JOINT LeftHandRing4
												{
													OFFSET 0.000000 0.000000 2.741241
													CHANNELS 6 Xposition Yposition Zposition Zrotation Yrotation Xrotation
													End Site
													{
														OFFSET 0.000000 0.000000 0.100006
													}
												}
											}
										}
									}
									JOINT LeftHandPinky1
									{
										OFFSET 0.173492 4.467224 7.976990
										CHANNELS 6 Xposition Yposition Zposition Zrotation Yrotation Xrotation
										JOINT LeftHandPinky2
										{
											OFFSET 0.000000 0.000000 3.350403
											CHANNELS 6 Xposition Yposition Zposition Zrotation Yrotation Xrotation
											JOINT LeftHandPinky3
											{
												OFFSET 0.000000 0.000000 2.842758
												CHANNELS 6 Xposition Yposition Zposition Zrotation Yrotation Xrotation
												JOINT LeftHandPinky4
												{
													OFFSET 0.000000 0.000000 2.639709
													CHANNELS 6 Xposition Yposition Zposition Zrotation Yrotation Xrotation
													End Site
													{
														OFFSET 0.000000 0.000000 0.100006
													}
												}
											}
										}
									}
									JOINT LeftForeArmEnd
									{
										OFFSET 0.000000 0.000000 0.000000
										CHANNELS 6 Xposition Yposition Zposition Zrotation Yrotation Xrotation
										End Site
										{
											OFFSET 0.000000 0.000000 0.100006
										}
									}
								}
								JOINT LeftArmEnd
								{
									OFFSET 0.000000 0.000000 0.000000
									CHANNELS 6 Xposition Yposition Zposition Zrotation Yrotation Xrotation
									End Site
									{
										OFFSET 0.000000 0.000000 0.100006
									}
								}
							}
						}
					}
				}
			}
		}
	}
	JOINT RightUpLeg
	{
		OFFSET -11.289948 0.000000 0.000000
		CHANNELS 6 Xposition Yposition Zposition Zrotation Yrotation Xrotation
		JOINT RightLeg
		{
			OFFSET 0.000000 0.000000 -38.200325
			CHANNELS 6 Xposition Yposition Zposition Zrotation Yrotation Xrotation
			JOINT RightFoot
			{
				OFFSET 0.000000 0.000000 -39.900856
				CHANNELS 6 Xposition Yposition Zposition Zrotation Yrotation Xrotation
				JOINT RightToeBase
				{
					OFFSET 0.000000 -15.261658 0.000001
					CHANNELS 6 Xposition Yposition Zposition Zrotation Yrotation Xrotation
					JOINT RightToeBaseEnd
					{
						OFFSET 0.000000 -7.370728 0.000001
						CHANNELS 6 Xposition Yposition Zposition Zrotation Yrotation Xrotation
						End Site
						{
							OFFSET 0.000000 0.000000 0.100000
						}
					}
				}
				JOINT RightLegEnd
				{
					OFFSET 0.000000 0.000000 0.000000
					CHANNELS 6 Xposition Yposition Zposition Zrotation Yrotation Xrotation
					End Site
					{
						OFFSET 0.000000 0.000000 0.100000
					}
				}
			}
			JOINT RightUpLegEnd
			{
				OFFSET 0.000000 0.000000 0.000000
				CHANNELS 6 Xposition Yposition Zposition Zrotation Yrotation Xrotation
				End Site
				{
					OFFSET 0.000000 0.000000 0.099998
				}
			}
		}
	}
	JOINT LeftUpLeg
	{
		OFFSET 11.315674 0.000000 0.000000
		CHANNELS 6 Xposition Yposition Zposition Zrotation Yrotation Xrotation
		JOINT LeftLeg
		{
			OFFSET 0.000000 0.000000 -38.200325
			CHANNELS 6 Xposition Yposition Zposition Zrotation Yrotation Xrotation
			JOINT LeftFoot
			{
				OFFSET 0.000000 0.000000 -39.900856
				CHANNELS 6 Xposition Yposition Zposition Zrotation Yrotation Xrotation
				JOINT LeftToeBase
				{
					OFFSET 0.000000 -15.261658 0.000001
					CHANNELS 6 Xposition Yposition Zposition Zrotation Yrotation Xrotation
					JOINT LeftToeBaseEnd
					{
						OFFSET 0.000000 -7.539978 0.000001
						CHANNELS 6 Xposition Yposition Zposition Zrotation Yrotation Xrotation
						End Site
						{
							OFFSET 0.000000 0.000000 0.100000
						}
					}
				}
				JOINT LeftLegEnd
				{
					OFFSET 0.000000 0.000000 0.000000
					CHANNELS 6 Xposition Yposition Zposition Zrotation Yrotation Xrotation
					End Site
					{
						OFFSET 0.000000 0.000000 0.100000
					}
				}
			}
			JOINT LeftUpLegEnd
			{
				OFFSET 0.000000 0.000000 0.000000
				CHANNELS 6 Xposition Yposition Zposition Zrotation Yrotation Xrotation
				End Site
				{
					OFFSET 0.000000 0.000000 0.099998
				}
			}
		}
	}
}
MOTION
Frames: 2
Frame Time: 0.016667
-4.702789 -9.264099 86.560219 12.937043 1.812090 -22.714018 0.000013 2.080068 8.814264 -0.692760 -3.534260 11.709991 -0.000010 -0.000016 8.844140 0.087816 -0.099598 5.360091 0.000001 -0.000009 11.682280 0.850070 2.264188 16.880321 -0.000032 0.000031 11.746696 0.320150 3.247981 12.451336 -0.000008 -0.000015 17.658264 3.755367 9.053260 34.223950 -0.000010 -0.000017 5.101506 -0.385561 2.469867 8.888670 0.000013 -0.000004 5.101514 -2.084564 1.952747 -16.580112 0.000011 -0.000002 11.655073 0.000000 -0.000003 0.000005 -2.625383 -0.000013 11.175202 16.026983 -93.505413 0.277052 -0.000027 0.000011 10.434700 -48.429152 -30.413931 58.527713 -0.000002 -0.000008 29.628412 12.839238 0.210035 23.028172 -0.000004 -0.000032 22.857609 20.333564 -6.524207 -8.908648 -2.867310 -2.944260 3.959518 33.330565 -11.340489 61.628312 -0.000004 -0.000016 3.350410 0.000002 -0.000003 -0.000147 0.000002 0.000012 3.756501 -0.000001 -0.000135 -0.000003 0.000007 -0.000064 3.147356 -0.000000 -0.000002 -0.000003 -0.086807 -2.345311 10.030874 -11.281862 -13.814390 2.585900 -0.000045 -0.000059 4.061085 0.382275 -9.886009 1.400572 -0.000061 -0.000048 3.248878 -0.125364 -9.885877 1.402083 -0.000043 -0.000058 2.639702 -0.000000 -0.000002 -0.000000 0.104095 -0.006803 9.502916 -5.881906 -12.782190 0.489601 0.000009 -0.000037 4.568765 0.458109 -9.080935 0.472137 0.000006 -0.000075 3.655005 -0.036190 -9.079049 0.472526 -0.000046 -0.000010 2.741210 0.000002 0.000000 -0.000001 0.086740 2.267376 8.921676 2.180270 -13.714861 0.130415 -0.000025 -0.000034 4.061080 -0.952430 -9.695232 -0.594537 -0.000028 -0.000077 3.654995 0.051521 -9.695122 -0.595224 -0.000022 -0.000052 2.741247 -0.000001 0.000001 0.000001 -0.173477 4.467220 7.976973 10.888583 -13.727373 -2.315787 0.000010 0.000008 3.350410 -1.843790 -9.692483 -1.901707 -0.000013 -0.000011 2.842741 0.159834 -9.692514 -1.902316 0.000007 0.000007 2.639694 -0.000001 0.000001 -0.000001 0.000002 0.000005 0.000022 -0.000001 -0.000001 0.000000 0.000012 -0.000005 -0.000014 0.000001 -0.000001 -0.000001 2.625402 0.000027 11.175218 -2.674490 89.796285 6.444372 0.000021 -0.000023 10.813622 37.480059 50.330523 47.539353 0.000052 0.000004 28.724781 -7.638238 0.430642 38.378280 0.644396 0.328865 25.716169 -29.207456 0.131585 -12.889976 2.867271 -2.944290 3.959572 -33.314282 11.330238 61.550298 -0.000002 0.000013 3.350420 0.011023 -0.011026 -0.022271 0.000015 0.000022 3.756512 0.011029 -0.011022 -0.022268 -0.000009 -0.000013 3.100001 0.000001 0.000001 -0.000000 0.086742 -2.345269 10.030865 -6.153085 14.351301 -2.422633 0.000013 0.000007 4.061075 0.372532 10.242798 -1.454693 0.000008 0.000009 3.248857 -0.127428 10.242625 -1.454681 -0.000003 0.000002 2.639726 0.000000 0.000002 0.000001 -0.104090 -0.006752 9.502934 -1.175912 13.434192 -1.182400 -0.000006 -0.000020 4.568759 0.462625 9.571691 -0.502696 0.000006 0.000004 3.654980 -0.037874 9.571690 -0.502344 0.000009 -0.000002 2.741233 -0.000000 0.000000 -0.000001 -0.086758 2.267482 8.921698 7.259231 14.394748 1.907677 0.000008 -0.000019 4.061090 -0.948444 10.289796 0.635630 0.000008 0.000002 3.654978 0.008489 10.289799 0.626350 -0.000003 -0.000005 2.741228 0.000000 0.000000 0.000002 0.173489 4.467208 7.976978 15.996667 13.753018 4.861838 -0.000002 0.000001 3.350407 -1.827438 10.111437 1.985571 0.000003 0.000007 2.842777 0.172105 10.109303 1.984637 0.000010 0.000013 2.639722 -0.000001 -0.000004 -0.000002 -0.000001 -0.000005 -0.000003 0.000000 -0.000000 0.000000 -0.000008 -0.000008 0.000030 0.000001 0.000001 -0.000001 -11.289929 -0.000038 0.000005 -9.838450 0.527092 16.892969 -0.000013 0.000050 -38.200321 -0.250105 0.099560 21.730561 -0.000036 -0.000074 -39.900864 -13.883632 2.099900 9.217358 -0.000027 -15.261677 0.000023 1.270560 0.379776 -15.112388 -0.000012 -7.370734 0.000001 0.000001 -0.000000 -0.000001 0.000007 -0.000058 -0.000002 -0.000000 0.000000 0.000002 0.000003 0.000004 0.000002 -0.000000 -0.000000 0.000000 11.315691 0.000038 0.000034 -8.450658 -7.628666 11.451859 0.000019 0.000016 -38.200325 0.926214 -0.479537 27.761336 -0.000004 -0.000019 -39.900879 1.291020 2.780961 10.881639 -0.000004 -15.261696 0.000051 -0.770194 -1.135481 -21.071110 0.000010 -7.540033 0.000003 -0.000001 -0.000000 0.000001 0.000002 -0.000054 0.000002 -0.000001 0.000001 -0.000001 0.000009 0.000002 -0.000001 -0.000001 0.000000 0.000001 
-4.662323 -9.246155 86.575150 13.238354 1.818890 -22.697702 -0.000015 2.080105 8.814249 -0.677602 -3.524961 11.701571 0.000012 0.000007 8.844147 0.110722 -0.106994 5.339716 -0.000003 -0.000010 11.682269 1.081256 2.420670 16.823564 -0.000030 -0.000014 11.746691 0.401329 3.438407 12.348969 0.000006 0.000006 17.658264 4.144225 9.733906 33.982479 -0.000000 -0.000001 5.101522 -0.241976 2.495381 8.834189 -0.000004 0.000010 5.101507 -2.133229 2.072435 -16.549810 -0.000000 -0.000006 11.655081 0.000001 -0.000003 -0.000001 -2.625397 0.000019 11.175215 16.067750 -93.507960 0.274618 0.000011 -0.000008 10.434692 -48.899974 -30.211221 58.640521 -0.000008 -0.000015 29.628429 13.011853 0.194292 23.302637 0.000015 -0.000084 22.857624 19.801910 -6.416325 -8.964199 -2.867340 -2.944244 3.959549 33.331190 -11.341622 61.627554 -0.000014 0.000023 3.350396 0.000002 -0.000004 -0.000146 0.000008 0.000014 3.756509 -0.000001 -0.000134 -0.000000 0.000013 -0.000065 3.147321 0.000001 -0.000003 0.000002 -0.086834 -2.345315 10.030861 -11.270707 -13.753530 2.657530 -0.000018 -0.000058 4.061059 0.382117 -9.851035 1.397970 -0.000008 -0.000037 3.248882 -0.125460 -9.851030 1.399260 -0.000029 0.000000 2.639721 -0.000000 0.000000 -0.000001 0.104061 -0.006786 9.502897 -5.875953 -12.746241 0.529997 -0.000037 -0.000039 4.568720 0.458053 -9.055669 0.473665 0.000008 -0.000088 3.655005 -0.036946 -9.055651 0.473725 -0.000034 0.000004 2.741240 -0.000001 0.000002 0.000001 0.086712 2.267410 8.921680 2.183012 -13.714552 0.108842 -0.000035 -0.000047 4.061080 -0.952369 -9.696152 -0.594920 -0.000029 -0.000087 3.654984 0.051661 -9.696156 -0.597379 -0.000067 -0.000068 2.741255 0.000001 0.000000 0.000000 -0.173477 4.467228 7.976999 10.887906 -13.746446 -2.396448 0.000000 0.000018 3.350414 -1.843265 -9.717781 -1.900297 -0.000009 -0.000015 2.842791 0.159845 -9.717808 -1.904353 -0.000013 0.000002 2.639708 -0.000001 0.000001 -0.000002 -0.000008 0.000017 0.000000 -0.000003 -0.000001 -0.000000 0.000008 -0.000008 -0.000012 0.000001 0.000001 -0.000000 2.625399 0.000022 11.175187 -1.642007 89.824658 7.438108 0.000004 0.000019 10.813629 37.380112 50.314800 47.409224 0.000033 0.000065 28.724771 -7.796806 0.429960 38.313270 0.644350 0.328823 25.716175 -29.354234 0.134758 -13.026160 2.867325 -2.944275 3.959549 -33.315327 11.327876 61.550871 -0.000003 -0.000014 3.350421 0.011022 -0.011025 -0.022263 -0.000008 -0.000030 3.756496 0.011028 -0.011020 -0.022269 0.000012 0.000002 3.100009 -0.000000 0.000004 -0.000003 0.086769 -2.345272 10.030867 -6.147242 14.406532 -2.334564 -0.000001 0.000026 4.061093 0.372319 10.272017 -1.458845 -0.000009 -0.000008 3.248855 -0.127658 10.272020 -1.458841 -0.000002 0.000003 2.639724 -0.000000 0.000003 0.000000 -0.104099 -0.006789 9.502924 -1.169311 13.478463 -1.099179 0.000004 0.000025 4.568732 0.462667 9.599476 -0.503436 -0.000007 0.000021 3.655003 -0.037931 9.599523 -0.503291 0.000003 -0.000004 2.741254 -0.000000 0.000003 0.000001 -0.086765 2.267452 8.921694 7.265428 14.418106 2.000780 -0.000026 0.000014 4.061103 -0.948174 10.311712 0.637697 -0.000015 -0.000012 3.654986 0.008694 10.311723 0.627951 -0.000009 0.000007 2.741269 -0.000001 0.000002 -0.000000 0.173489 4.467203 7.976997 16.000107 13.754079 4.956840 -0.000017 0.000028 3.350386 -1.827683 10.125271 1.988242 -0.000015 -0.000023 2.842775 0.172870 10.125301 1.986717 0.000003 0.000001 2.639722 -0.000000 -0.000002 0.000002 -0.000001 0.000001 0.000022 -0.000000 -0.000001 0.000000 -0.000025 -0.000003 -0.000006 0.000000 -0.000000 0.000002 -11.289975 -0.000019 0.000004 -10.036376 0.622453 16.992577 -0.000017 0.000036 -38.200314 -0.262888 0.103939 21.553048 -0.000052 -0.000020 -39.900871 -13.984333 2.170721 9.229221 -0.000030 -15.261593 0.000006 1.282715 0.366805 -15.075899 -0.000012 -7.370728 -0.000000 0.000000 -0.000000 -0.000001 0.000009 0.000002 -0.000001 -0.000000 -0.000000 0.000001 -0.000002 0.000000 -0.000002 0.000000 -0.000000 -0.000001 11.315697 0.000068 0.000019 -8.595837 -7.551385 11.419018 -0.000010 -0.000040 -38.200340 0.930597 -0.479788 27.641490 0.000000 -0.000007 -39.900879 1.143753 2.748721 10.927609 -0.000020 -15.261729 0.000047 -0.758908 -1.146276 -21.058320 -0.000022 -7.540034 0.000003 -0.000001 -0.000000 0.000001 -0.000019 -0.000063 0.000002 0.000000 -0.000000 -0.000001 -0.000005 -0.000002 0.000003 0.000000 0.000000 -0.000001 
